<svg width="25" height="28" viewBox="0 0 25 28" fill="none" xmlns="http://www.w3.org/2000/svg">
<g clip-path="url(#clip0)">
<path d="M2.94536 24.0522H19.1258L18.353 21.5501L20.2015 23.1364L21.8957 24.6547L24.9823 27.234V2.80851C24.9051 1.29021 23.5978 0 21.9774 0L2.95103 0.00340426C1.33174 0.00340426 0.0177002 1.29589 0.0177002 2.81419V21.2426C0.0177002 22.8437 1.32947 24.0522 2.94536 24.0522ZM14.9147 6.44878L14.8773 6.46239L14.8909 6.44878H14.9147ZM6.25545 7.88878C8.33545 6.37505 10.2634 6.44766 10.2634 6.44766L10.4189 6.60085C7.87359 7.20793 6.71955 8.34495 6.71955 8.34495C6.71955 8.34495 7.02822 8.19404 7.56721 7.96367C10.9953 6.61558 14.7389 6.71319 18.2044 8.41984C18.2044 8.41984 17.0481 7.3566 14.6594 6.67574L14.8704 6.46809C15.2007 6.4692 16.9482 6.53048 18.8183 7.89787C18.8183 7.89787 20.9108 11.4723 20.9108 15.8638C20.8415 15.7798 19.6126 17.7543 16.45 17.8224C16.45 17.8224 15.9144 17.2164 15.5332 16.6877C17.3828 16.1566 18.075 15.0945 18.075 15.0945C17.4679 15.4769 16.9142 15.7038 16.4648 15.9308C15.7737 16.2349 15.0815 16.3847 14.3904 16.5379C11.1178 17.0689 9.28066 16.1804 7.54449 15.4757L6.95103 15.1739C6.95103 15.1739 7.6421 16.236 9.418 16.7671C8.95162 17.2993 8.48976 17.9041 8.48976 17.9041C5.32832 17.8292 4.17543 15.8547 4.17543 15.8547C4.17543 11.4564 6.25545 7.88878 6.25545 7.88878Z" fill="#F2F2F2"/>
<path d="M15.119 14.4919C15.9258 14.4919 16.5828 13.811 16.5828 12.9713C16.5828 12.1373 15.9292 11.4564 15.119 11.4564V11.4598C14.3156 11.4598 13.6574 12.1384 13.6552 12.9781C13.6552 13.811 14.3122 14.4919 15.119 14.4919Z" fill="#F2F2F2"/>
<path d="M9.87875 14.4919C10.6856 14.4919 11.3426 13.811 11.3426 12.9713C11.3426 12.1373 10.6901 11.4564 9.88327 11.4564L9.87875 11.4598C9.07194 11.4598 8.41492 12.1384 8.41492 12.9781C8.41492 13.811 9.07194 14.4919 9.87875 14.4919Z" fill="#F2F2F2"/>
</g>
<defs>
<clipPath id="clip0">
<rect width="25" height="27.234" fill="white"/>
</clipPath>
</defs>
</svg>
