<svg width="25" height="18" viewBox="0 0 25 18" fill="none" xmlns="http://www.w3.org/2000/svg">
<g clip-path="url(#clip0)">
<path d="M22.8027 0H2.19727C0.983252 0 0 0.989355 0 2.19727V15.3809C0 16.5959 0.990479 17.5781 2.19727 17.5781H22.8027C24.0066 17.5781 25 16.6001 25 15.3809V2.19727C25 0.991504 24.0207 0 22.8027 0ZM22.495 1.46484C22.0461 1.91138 14.3205 9.59634 14.0537 9.86167C13.6387 10.2767 13.0869 10.5052 12.5 10.5052C11.9131 10.5052 11.3613 10.2767 10.9449 9.8603C10.7655 9.68184 3.12515 2.08174 2.50498 1.46484H22.495ZM1.46484 15.0827V2.49634L7.79482 8.79297L1.46484 15.0827ZM2.50591 16.1133L8.8334 9.82603L9.9105 10.8975C10.6022 11.5892 11.5218 11.9701 12.5 11.9701C13.4782 11.9701 14.3978 11.5892 15.0881 10.8988L16.1666 9.82603L22.4941 16.1133H2.50591ZM23.5352 15.0827L17.2052 8.79297L23.5352 2.49634V15.0827Z" fill="#101010"/>
</g>
<defs>
<clipPath id="clip0">
<rect width="25" height="17.5781" fill="white"/>
</clipPath>
</defs>
</svg>
