<svg width="25" height="25" viewBox="0 0 25 25" fill="none" xmlns="http://www.w3.org/2000/svg">
<path d="M23.62 2.82789e-08H1.37879C0.617219 0.000457793 -0.00015256 0.618133 2.82789e-08 1.38V23.6212C0.000457793 24.3828 0.618133 25.0002 1.38 25H13.3545V15.332H10.1074V11.5479H13.3545V8.76297C13.3545 5.53344 15.3261 3.77563 18.207 3.77563C19.5868 3.77563 20.7725 3.87848 21.1182 3.92441V7.2998H19.1316C17.5643 7.2998 17.2607 8.04457 17.2607 9.13773V11.5479H21.0083L20.52 15.332H17.2607V25H23.62C24.382 25.0002 24.9998 24.3826 25 23.6206C25 23.6205 25 23.6203 25 23.62V1.37879C24.9997 0.617219 24.3819 -0.00015256 23.62 2.82789e-08Z" fill="#F2F2F2"/>
</svg>
