<svg width="25" height="25" viewBox="0 0 25 25" fill="none" xmlns="http://www.w3.org/2000/svg">
<path d="M15.031 14.7548C14.6411 14.7548 14.2726 14.9714 13.9261 15.4046V12.7882H12.8374V20.7994H13.9261V20.2142C14.2834 20.6586 14.6516 20.8806 15.031 20.8806C15.4751 20.8806 15.762 20.6533 15.8921 20.1982C15.9678 19.9703 16.0059 19.5754 16.0059 19.0118V16.6392C16.0059 16.0652 15.9678 15.6643 15.8921 15.437C15.762 14.9818 15.4751 14.7548 15.031 14.7548ZM14.9335 19.0932C14.9335 19.6245 14.7764 19.8892 14.4621 19.8892C14.2779 19.8892 14.0992 19.8027 13.9261 19.6296V15.9893C14.0992 15.8167 14.2779 15.7297 14.4621 15.7297C14.7761 15.7297 14.9335 16.0006 14.9335 16.5422V19.0932Z" fill="#F2F2F2"/>
<path d="M18.4757 14.7548C17.9234 14.7548 17.4897 14.9611 17.1758 15.3724C16.959 15.6643 16.8507 16.131 16.8507 16.7695V18.8662C16.8507 19.5053 16.9645 19.9706 17.192 20.2634C17.506 20.6754 17.9449 20.8809 18.5083 20.8809C19.0825 20.8809 19.5157 20.6644 19.8082 20.2308C19.9383 20.0359 20.0195 19.8196 20.0521 19.5807C20.0736 19.4296 20.0844 19.196 20.0844 18.8817V18.7357H18.9795C18.9795 18.8549 18.9795 18.9712 18.9795 19.0847C18.9795 19.1982 18.9767 19.2877 18.9714 19.3531C18.9659 19.4178 18.9634 19.4559 18.9634 19.4667C18.8985 19.7486 18.7359 19.8887 18.476 19.8887C18.1075 19.8887 17.9236 19.6125 17.9236 19.0604V18.004H20.0847V16.7693C20.0847 16.1415 19.9709 15.6757 19.7436 15.3721C19.4509 14.9611 19.0283 14.7548 18.4757 14.7548ZM18.9957 17.1109H17.9233V16.5579C17.9233 16.0056 18.102 15.7296 18.4594 15.7296C18.817 15.7296 18.9957 16.0058 18.9957 16.5579V17.1109Z" fill="#F2F2F2"/>
<path d="M10.8221 19.3857C10.5838 19.7215 10.3562 19.8891 10.1397 19.8891C9.98779 19.8891 9.90661 19.8079 9.89614 19.6453C9.88508 19.6243 9.87985 19.4829 9.87985 19.2232V14.8359H8.80746V19.5483C8.80746 19.9603 8.84005 20.2522 8.90494 20.4254C9.00246 20.7295 9.22998 20.8806 9.58738 20.8806C9.9881 20.8806 10.3999 20.6367 10.8224 20.1493V20.7994H11.9111V14.836H10.8224V19.3857H10.8221Z" fill="#F2F2F2"/>
<path d="M12.2361 8.7099C12.5827 8.7099 12.7562 8.43319 12.7562 7.88084V5.34554C12.7562 4.78241 12.5827 4.50073 12.2361 4.50073C11.8892 4.50073 11.7161 4.78241 11.7161 5.34554V7.88084C11.7161 8.43314 11.8892 8.7099 12.2361 8.7099Z" fill="#F2F2F2"/>
<path d="M4.87497 13.9258H6.14234V20.7994H7.34482V13.9258H8.64473V12.7882H4.87497V13.9258Z" fill="#F2F2F2"/>
<path d="M20.2797 0H4.68005C3.39088 0 2.28867 0.458168 1.37315 1.37283C0.457626 2.28894 0 3.39088 0 4.68001V20.2794C0 21.5685 0.457626 22.671 1.37315 23.5857C2.2884 24.5009 3.39061 24.9594 4.68005 24.9594H20.2797C21.5686 24.9594 22.6708 24.5012 23.5863 23.5857C24.5015 22.671 24.9594 21.5685 24.9594 20.2794V4.68001C24.9594 3.39084 24.5015 2.2889 23.5863 1.37283C22.6708 0.458168 21.5686 0 20.2797 0ZM14.7385 3.60736H15.8272V8.02694C15.8272 8.28709 15.8327 8.4282 15.8435 8.44977C15.8542 8.62374 15.941 8.70993 16.1034 8.70993C16.3199 8.70993 16.5475 8.54228 16.7858 8.20591V3.60736H17.8745V9.61963H16.7858V8.96954C16.3414 9.45699 15.9244 9.70086 15.5345 9.70086C15.1876 9.70086 14.9548 9.55478 14.8358 9.26227C14.7709 9.06733 14.7383 8.76958 14.7383 8.36859V3.60736H14.7385ZM10.6272 5.55718C10.6272 4.92942 10.7409 4.45772 10.9685 4.14373C11.261 3.73249 11.6835 3.52617 12.2359 3.52617C12.7664 3.52617 13.1889 3.73249 13.5032 4.14373C13.7308 4.45799 13.8443 4.92942 13.8443 5.55718V7.66963C13.8443 8.31945 13.7305 8.7912 13.5032 9.08308C13.1889 9.49513 12.7664 9.70063 12.2359 9.70063C11.6835 9.70063 11.261 9.49486 10.9685 9.08308C10.7409 8.76963 10.6272 8.29847 10.6272 7.66963V5.55718ZM7.70248 1.54382L8.56385 4.71236L9.39237 1.54382H10.6111L9.14878 6.35393V9.61967H7.94634V6.35393C7.82703 5.75794 7.57793 4.90235 7.19878 3.78637C7.12283 3.53754 6.99797 3.16358 6.82482 2.66485C6.6514 2.16719 6.5213 1.79323 6.43484 1.54386H7.70248V1.54382ZM21.0922 21.1568C20.9837 21.6233 20.7533 22.0182 20.4014 22.3433C20.0493 22.6683 19.6403 22.858 19.1747 22.9119C17.6905 23.0743 15.4588 23.1557 12.48 23.1557C9.50059 23.1557 7.26913 23.0745 5.78524 22.9119C5.31931 22.858 4.91033 22.6681 4.55848 22.3433C4.20636 22.0182 3.97604 21.6236 3.86805 21.1568C3.65126 20.2471 3.54301 18.8386 3.54301 16.9319C3.54301 15.0581 3.65126 13.6496 3.86805 12.707C3.97631 12.2309 4.20663 11.8329 4.55848 11.5131C4.91033 11.1933 5.32486 11.0066 5.80153 10.9519C7.27464 10.7895 9.5009 10.708 12.4802 10.708C15.4701 10.708 17.7016 10.7892 19.175 10.9519C19.6408 11.0066 20.0526 11.193 20.41 11.5131C20.7676 11.8329 21.0005 12.2309 21.1087 12.707C21.3144 13.6065 21.4175 15.0145 21.4175 16.9319C21.417 18.8386 21.3087 20.2471 21.0922 21.1568Z" fill="#F2F2F2"/>
</svg>
